<?xml version="1.0" encoding="utf-8"?>
<!-- Generator: Adobe Illustrator 16.0.0, SVG Export Plug-In . SVG Version: 6.00 Build 0)  -->
<!DOCTYPE svg PUBLIC "-//W3C//DTD SVG 1.1//EN" "http://www.w3.org/Graphics/SVG/1.1/DTD/svg11.dtd">
<svg version="1.1" id="Calque_1" xmlns="http://www.w3.org/2000/svg" xmlns:xlink="http://www.w3.org/1999/xlink" x="0px" y="0px"
	 width="175.75px" height="82.2px" viewBox="0 0 175.75 82.2" enable-background="new 0 0 175.75 82.2" xml:space="preserve">
<g>
	<path d="M101.409,47.463l16.105,6.141c-1.079,5.668-2.803,10.354-5.149,14.131c-2.304,3.791-5.213,6.624-8.671,8.558
		c-3.415,1.931-7.808,2.9-13.146,2.9c-6.49,0-11.777-1.172-15.87-3.518c-4.09-2.371-7.631-6.477-10.609-12.394
		c-3.003-5.917-4.497-13.476-4.497-22.687c0-12.255,2.623-21.734,7.85-28.31c5.257-6.62,12.643-9.93,22.211-9.93
		c7.499,0,13.399,1.903,17.687,5.679c4.287,3.788,7.478,9.601,9.559,17.441l-16.23,4.521c-0.541-2.278-1.13-3.929-1.774-4.977
		c-1.037-1.76-2.231-3.114-3.754-4.063c-1.521-0.938-3.164-1.406-5.018-1.406c-4.123,0-7.339,2.108-9.566,6.233
		c-1.688,3.143-2.525,8.062-2.525,14.684c0,8.224,1,13.899,3.01,16.954c2.029,3.046,4.842,4.569,8.475,4.569
		c3.518,0,6.174-1.229,7.989-3.697C99.3,55.782,100.588,52.209,101.409,47.463z"/>
</g>
<g>
	<path fill="#5DA0CE" d="M171.829,20.313L155.254,22.8c-0.421-2.839-1.172-4.83-2.173-6.003c-1.019-1.203-2.28-1.758-3.772-1.758
		c-2.683,0-4.752,1.654-6.266,5.039c-1.09,2.416-1.889,7.616-2.448,15.586c2.003-2.52,4.047-4.375,6.133-5.566
		c2.084-1.216,4.483-1.816,7.237-1.816c5.342,0,9.858,2.401,13.563,7.106c3.694,4.736,5.552,10.728,5.552,17.993
		c0,4.953-0.949,9.417-2.795,13.476c-1.875,4.042-4.453,7.132-7.75,9.201c-3.293,2.093-7.429,3.135-12.406,3.135
		c-5.955,0-10.75-1.267-14.34-3.811c-3.616-2.52-6.487-6.592-8.658-12.159c-2.167-5.533-3.251-12.889-3.251-22.045
		c0-13.413,2.258-23.208,6.81-29.472c4.529-6.22,10.817-9.351,18.823-9.351c4.796,0,8.557,0.683,11.297,2.076
		c2.738,1.351,5.022,3.34,6.856,5.979C169.493,13.048,170.87,16.329,171.829,20.313z M141.194,53.439
		c0,4.042,0.817,7.205,2.458,9.491c1.631,2.285,3.636,3.455,6.005,3.455c2.182,0,4-1.053,5.451-3.104
		c1.465-2.067,2.195-5.156,2.195-9.265c0-4.211-0.762-7.434-2.291-9.621c-1.528-2.207-3.419-3.32-5.677-3.32
		c-2.285,0-4.224,1.055-5.801,3.22C141.988,46.408,141.194,49.455,141.194,53.439z"/>
</g>
<g>
	<path d="M8.417,10.06c1.833-2.637,4.12-4.632,6.856-6.009C18.014,2.684,21.771,2,26.544,2c8.027,0,14.308,3.135,18.849,9.351
		c4.535,6.267,6.812,16.059,6.812,29.474c0,9.157-1.093,16.481-3.251,22.048c-2.168,5.566-5.055,9.608-8.658,12.161
		c-3.604,2.538-8.389,3.803-14.342,3.803c-4.979,0-9.118-1.041-12.417-3.13c-3.298-2.071-5.88-5.159-7.737-9.204
		C3.932,62.442,3,57.982,3,53.028C3,45.763,4.853,39.77,8.549,35.03c3.7-4.737,8.218-7.102,13.543-7.102
		c2.752,0,5.17,0.599,7.26,1.817c2.087,1.188,4.134,3.047,6.131,5.565c-0.532-7.969-1.354-13.172-2.446-15.584
		c-1.486-3.39-3.582-5.07-6.261-5.07c-1.495,0-2.755,0.58-3.776,1.788c-1.023,1.173-1.749,3.165-2.195,6.036l-16.55-2.521
		C5.199,15.977,6.59,12.665,8.417,10.06z M32.531,43.94c-1.565-2.161-3.498-3.217-5.811-3.217c-2.229,0-4.122,1.111-5.653,3.281
		c-1.528,2.228-2.292,5.45-2.292,9.657c0,4.107,0.729,7.196,2.188,9.266c1.46,2.053,3.277,3.104,5.452,3.104
		c2.382,0,4.384-1.168,6.013-3.452c1.628-2.286,2.446-5.449,2.446-9.492C34.875,49.104,34.1,46.057,32.531,43.94z"/>
</g>
</svg>
